<?xml version="1.0" encoding="UTF-8" ?>
<!DOCTYPE svg PUBLIC "-//W3C//DTD SVG 1.1//EN" "http://www.w3.org/Graphics/SVG/1.1/DTD/svg11.dtd">
<svg width="3460pt" height="1088pt" viewBox="0 0 3460 1088" version="1.1" xmlns="http://www.w3.org/2000/svg">
<g id="#000000ff">
<path fill="#FFFFFF" opacity="1.00" d=" M 640.16 157.16 C 655.67 143.05 676.18 135.08 696.96 133.57 C 714.08 132.93 731.80 137.24 745.81 147.35 C 749.68 150.01 752.44 153.94 756.25 156.65 C 762.43 156.68 768.27 153.89 774.13 152.15 C 788.37 147.70 801.73 140.99 814.77 133.84 C 807.08 157.84 790.38 178.55 768.96 191.72 C 785.59 189.57 802.05 185.75 817.73 179.75 C 821.27 178.34 824.79 176.87 828.41 175.68 C 817.86 191.94 804.60 206.30 789.94 218.93 C 786.28 221.96 782.34 224.64 778.80 227.80 C 776.53 229.70 776.71 232.94 775.95 235.56 C 773.11 250.10 768.18 264.26 761.18 277.33 C 777.01 281.58 792.80 286.51 807.18 294.54 C 836.80 310.37 860.69 336.59 873.67 367.57 C 880.60 383.89 884.78 401.33 886.34 418.97 C 886.52 430.31 887.07 441.73 885.67 453.02 C 885.67 453.74 885.68 455.18 885.69 455.90 C 888.72 457.27 892.03 457.80 895.22 458.72 C 946.56 472.87 992.71 504.95 1023.84 548.16 C 1045.82 578.47 1060.47 614.04 1066.18 651.05 C 1072.72 692.68 1067.83 736.03 1052.21 775.17 C 1040.27 805.38 1021.96 833.02 998.96 855.95 C 974.58 880.13 944.94 899.00 912.65 910.70 C 867.51 927.20 817.33 929.40 770.88 917.13 C 730.25 906.48 692.65 884.72 663.04 854.95 C 622.45 814.28 597.48 758.49 594.39 701.09 C 590.82 642.46 610.16 582.84 647.42 537.44 C 650.71 533.09 654.80 529.41 657.91 524.94 C 655.54 520.01 651.35 516.24 648.62 511.51 C 635.44 492.60 629.38 468.25 634.45 445.56 C 634.95 445.49 635.93 445.35 636.42 445.28 C 635.55 461.09 639.83 477.08 648.36 490.41 C 653.97 499.31 661.19 507.08 668.94 514.14 C 678.82 505.37 689.02 496.90 700.10 489.67 C 684.03 467.44 670.15 442.49 666.56 414.91 C 664.94 408.05 665.69 400.98 665.52 394.00 C 665.31 387.92 667.20 382.06 667.86 376.06 C 671.21 360.29 678.04 345.53 685.48 331.31 C 679.23 330.97 673.28 333.13 667.16 333.93 C 647.08 338.44 627.99 346.70 610.30 357.12 C 596.95 365.47 584.02 374.70 572.82 385.83 C 563.65 394.73 554.63 403.87 547.18 414.30 C 542.47 420.07 539.23 426.92 533.87 432.16 C 534.87 429.98 535.56 427.67 536.18 425.37 C 547.53 387.60 569.86 353.50 598.79 326.85 C 627.08 300.62 662.75 281.92 700.95 275.66 C 707.57 275.24 714.15 274.31 720.81 274.42 C 723.45 274.68 725.56 272.84 726.83 270.70 C 735.02 257.87 743.06 244.66 747.48 229.97 C 750.50 219.03 752.06 207.38 749.51 196.17 C 748.36 188.48 745.97 180.91 741.83 174.29 C 734.83 162.78 723.00 154.64 709.99 151.41 C 684.95 145.03 656.85 152.26 638.02 169.99 C 628.99 179.22 621.83 191.33 621.21 204.48 C 620.82 204.49 620.05 204.52 619.66 204.53 C 619.62 201.00 619.30 197.46 619.59 193.93 C 622.21 179.84 629.83 166.99 640.16 157.16 M 728.45 336.32 C 725.73 339.64 724.15 343.70 722.20 347.47 C 717.17 357.52 713.22 368.14 710.84 379.14 C 709.93 386.38 710.28 393.72 710.34 401.00 C 710.24 407.56 712.61 413.77 714.81 419.83 C 721.80 437.16 733.24 452.29 745.73 466.02 C 759.62 460.50 774.13 456.87 788.69 453.65 C 790.97 446.20 794.14 438.92 794.84 431.07 C 799.78 409.37 794.75 385.52 781.36 367.71 C 769.04 352.62 751.73 342.24 733.40 336.12 C 731.80 335.82 729.60 334.47 728.45 336.32 M 818.44 568.64 C 802.13 570.55 786.23 575.82 771.96 583.93 C 743.89 599.85 722.74 627.47 714.85 658.78 C 706.23 691.27 712.24 727.20 730.73 755.24 C 748.03 781.93 776.29 801.12 807.43 807.52 C 846.58 816.03 889.47 803.07 917.54 774.54 C 944.56 747.96 957.59 708.12 951.62 670.70 C 947.02 640.01 930.07 611.42 905.30 592.73 C 880.83 574.01 849.05 565.10 818.44 568.64 Z" />
<path fill="#FFFFFF" opacity="1.00" d=" M 2953.08 479.12 C 2986.70 460.08 3025.69 452.49 3064.02 451.81 C 3112.37 450.87 3160.83 460.17 3205.56 478.49 C 3222.13 485.23 3238.01 493.62 3253.08 503.25 C 3238.27 533.77 3223.34 564.23 3208.65 594.81 C 3175.36 575.58 3139.34 561.00 3101.92 552.13 C 3082.18 547.70 3061.51 544.70 3041.44 548.66 C 3030.74 550.98 3019.37 555.75 3013.67 565.66 C 3006.95 578.27 3009.79 595.09 3019.82 605.17 C 3026.67 612.30 3035.94 616.28 3044.85 620.20 C 3077.22 634.00 3111.86 641.14 3144.87 653.14 C 3163.72 660.06 3182.94 666.90 3199.66 678.29 C 3212.60 687.07 3224.03 698.02 3233.65 710.34 C 3245.31 725.59 3251.31 744.49 3253.35 763.41 C 3255.75 786.23 3253.96 809.88 3245.33 831.31 C 3233.66 860.52 3209.88 883.80 3182.28 898.25 C 3148.09 915.89 3109.20 922.61 3071.00 922.84 C 3028.75 923.14 2986.56 914.98 2947.17 899.80 C 2915.13 887.65 2884.82 870.74 2858.26 849.05 C 2873.47 818.85 2888.59 788.60 2903.79 758.41 C 2932.12 783.15 2965.84 801.18 3001.10 813.94 C 3023.52 821.95 3047.06 827.79 3071.00 827.78 C 3087.34 827.62 3104.88 825.45 3118.27 815.26 C 3130.72 805.82 3133.78 787.74 3128.42 773.64 C 3124.74 764.01 3116.41 757.02 3107.40 752.52 C 3089.45 743.56 3070.19 737.62 3051.00 731.98 C 3029.37 726.08 3007.83 719.82 2986.72 712.26 C 2971.36 706.61 2955.79 700.96 2941.98 692.02 C 2928.78 683.60 2917.21 672.76 2907.46 660.54 C 2896.16 646.13 2890.00 628.27 2887.80 610.23 C 2885.08 587.22 2886.94 563.30 2895.82 541.74 C 2906.69 514.89 2928.05 493.21 2953.08 479.12 Z" />
<path fill="#FFFFFF" opacity="1.00" d=" M 163.01 456.93 C 218.67 456.93 274.34 456.93 330.00 456.93 C 354.36 457.15 378.83 456.00 403.06 459.13 C 435.68 463.03 468.33 473.18 494.79 493.20 C 510.40 504.94 523.61 519.98 532.73 537.29 C 549.80 569.47 552.95 607.17 549.48 642.91 C 546.37 675.07 535.09 707.09 513.75 731.74 C 492.56 756.70 462.74 773.29 431.22 781.30 C 408.99 787.06 385.93 789.21 363.00 789.07 C 335.57 789.06 308.15 789.10 280.72 789.05 C 280.76 832.37 280.65 875.69 280.77 919.01 C 241.52 919.00 202.26 918.97 163.00 919.02 C 163.08 764.99 163.06 610.96 163.01 456.93 M 280.79 549.29 C 280.68 598.43 280.68 647.57 280.79 696.71 C 301.52 696.54 322.26 696.69 343.00 696.64 C 359.45 696.69 376.28 697.21 392.15 692.16 C 408.03 687.50 422.53 677.12 430.47 662.40 C 438.99 646.83 440.58 628.42 439.05 611.01 C 437.60 594.75 431.04 578.37 418.37 567.65 C 402.97 554.25 381.96 549.78 362.04 549.42 C 334.96 549.23 307.87 549.50 280.79 549.29 Z" />
<path fill="#FFFFFF" opacity="1.00" d=" M 1126.01 456.93 C 1165.26 456.95 1204.52 456.89 1243.77 456.96 C 1243.68 578.23 1243.71 699.49 1243.75 820.76 C 1309.08 820.67 1374.40 820.66 1439.73 820.76 C 1439.61 853.50 1439.62 886.25 1439.72 919.00 C 1335.15 919.02 1230.57 918.97 1126.00 919.02 C 1126.08 764.99 1126.06 610.96 1126.01 456.93 Z" />
<path fill="#FFFFFF" opacity="1.00" d=" M 1445.85 456.97 C 1484.94 456.84 1524.02 457.04 1563.11 456.87 C 1600.22 524.01 1637.38 591.12 1674.59 658.22 C 1694.28 621.99 1713.81 585.68 1733.47 549.44 C 1750.00 518.60 1766.94 487.97 1783.26 457.03 C 1822.53 456.82 1861.80 456.95 1901.08 456.96 C 1848.31 555.55 1795.50 654.11 1742.72 752.69 C 1739.82 758.84 1735.53 764.45 1733.64 770.98 C 1733.50 820.31 1733.52 869.65 1733.63 918.98 C 1694.61 919.04 1655.59 918.95 1616.57 919.03 C 1616.60 871.35 1616.54 823.67 1616.60 775.99 C 1616.64 774.13 1616.25 772.29 1615.33 770.69 C 1558.83 666.12 1502.31 561.56 1445.85 456.97 Z" />
<path fill="#FFFFFF" opacity="1.00" d=" M 1944.01 456.93 C 1999.34 456.93 2054.67 456.93 2110.00 456.93 C 2134.69 457.16 2159.49 455.97 2184.06 459.13 C 2216.44 463.01 2248.85 473.03 2275.20 492.77 C 2297.50 509.17 2314.50 532.62 2322.96 558.99 C 2329.93 579.88 2332.18 602.08 2331.66 624.01 C 2331.03 653.04 2325.27 682.48 2311.12 708.08 C 2296.50 734.88 2272.81 756.28 2245.32 769.31 C 2215.71 783.48 2182.58 788.67 2150.00 789.04 C 2120.57 789.09 2091.14 789.08 2061.72 789.05 C 2061.76 832.37 2061.65 875.69 2061.77 919.01 C 2022.52 919.00 1983.26 918.97 1944.00 919.02 C 1944.08 764.99 1944.06 610.96 1944.01 456.93 M 2061.78 549.29 C 2061.68 598.43 2061.68 647.57 2061.79 696.71 C 2083.85 696.54 2105.93 696.69 2128.00 696.64 C 2143.64 696.82 2159.66 696.74 2174.66 691.68 C 2190.19 686.80 2204.20 676.30 2211.83 661.74 C 2220.17 646.01 2221.63 627.54 2219.96 610.08 C 2218.34 593.90 2211.58 577.70 2198.82 567.19 C 2183.46 554.13 2162.73 549.78 2143.05 549.42 C 2115.96 549.23 2088.87 549.50 2061.78 549.29 Z" />
<path fill="#FFFFFF" opacity="1.00" d=" M 2385.28 456.98 C 2424.43 456.90 2463.57 456.90 2502.72 456.98 C 2502.58 539.65 2502.70 622.33 2502.66 705.00 C 2502.77 720.61 2501.88 736.42 2505.24 751.79 C 2509.19 772.03 2519.80 791.03 2535.68 804.31 C 2549.66 816.37 2567.59 823.34 2585.88 825.16 C 2604.33 827.02 2623.54 825.30 2640.57 817.57 C 2658.82 809.34 2673.66 794.16 2682.03 776.03 C 2689.77 759.52 2692.29 741.07 2692.13 722.99 C 2692.12 634.31 2692.18 545.62 2692.10 456.94 C 2731.09 456.91 2770.08 456.95 2809.08 456.92 C 2809.06 537.28 2809.07 617.64 2809.07 698.00 C 2808.92 718.31 2809.84 738.73 2806.92 758.90 C 2802.19 795.98 2787.20 832.12 2762.09 860.06 C 2741.69 883.00 2714.95 899.83 2686.14 910.13 C 2663.71 918.16 2640.03 922.32 2616.29 923.66 C 2577.10 925.67 2536.97 921.53 2500.42 906.59 C 2478.44 897.58 2457.87 884.79 2440.82 868.19 C 2421.92 849.94 2407.44 827.26 2398.33 802.64 C 2391.87 785.24 2388.05 766.91 2386.38 748.44 C 2384.98 733.67 2385.41 718.81 2385.34 704.00 C 2385.30 621.66 2385.42 539.32 2385.28 456.98 Z" />
</g>
</svg>
